<svg height="512pt" viewBox="0 -60 512.13 512" width="512pt" xmlns="http://www.w3.org/2000/svg"><path d="m504.066406 383.988281h-496v-367.921875l8 8 16-16 16 16 16-16 16 16 16-16 16 16 16-16 16 16 16-16 16 16 16-16 16 16 16-16 16 16 16-16 16 16 16-16 16 16 16-16 16 16 16-16 16 16 16-16 16 16 16-16 16 16 16-16 16 16 16-16 16 16 8-8zm0 0" fill="#d7e9ff"/><path d="m192.105469 335.988281v16h-80v-16c0-8.882812 7.199219-16 16-16h48c8.878906 0 16 7.117188 16 16zm0 0" fill="#94c1ff"/><path d="m152.105469 351.988281h40v32h-80v-32zm0 0" fill="#94c1ff"/><path d="m464.027344 328.628906v31.359375h-24v-16c0-8.882812 7.199218-16 16-16h8zm0 0" fill="#fff"/><path d="m440.027344 359.988281h24v24h-24zm0 0" fill="#fff"/><path d="m464.027344 359.988281h24v24h-24zm0 0" fill="#fff"/><path d="m488.027344 343.988281v16h-24v-32h8c8.878906 0 16 7.117188 16 16zm0 0" fill="#fff"/><path d="m432.027344 208.226562v95.199219l-80.242188 80.242188v.320312h-129.039062v-.472656l192.320312-192.25zm0 0" fill="#94c1ff"/><g fill="#116fff"><path d="m496.003906 32.066406c-2.050781 0-4.097656-.785156-5.65625-2.34375-3.128906-3.128906-3.128906-8.183594 0-11.3125l8-8c3.125-3.128906 8.183594-3.128906 11.308594 0 3.128906 3.128906 3.128906 8.183594 0 11.3125l-8 8c-1.558594 1.558594-3.605469 2.34375-5.652344 2.34375zm0 0"/><path d="m496.003906 32.066406c-2.050781 0-4.097656-.785156-5.65625-2.34375l-16-16c-3.128906-3.128906-3.128906-8.183594 0-11.3125 3.125-3.128906 8.183594-3.128906 11.308594 0l16 16c3.128906 3.128906 3.128906 8.183594 0 11.3125-1.558594 1.558594-3.605469 2.34375-5.652344 2.34375zm0 0"/><path d="m464.003906 32.066406c-2.050781 0-4.097656-.785156-5.65625-2.34375-3.128906-3.128906-3.128906-8.183594 0-11.3125l16-16c3.125-3.128906 8.183594-3.128906 11.308594 0 3.128906 3.128906 3.128906 8.183594 0 11.3125l-16 16c-1.558594 1.558594-3.605469 2.34375-5.652344 2.34375zm0 0"/><path d="m464.003906 32.066406c-2.050781 0-4.097656-.785156-5.65625-2.34375l-16-16c-3.128906-3.128906-3.128906-8.183594 0-11.3125 3.125-3.128906 8.183594-3.128906 11.308594 0l16 16c3.128906 3.128906 3.128906 8.183594 0 11.3125-1.558594 1.558594-3.605469 2.34375-5.652344 2.34375zm0 0"/><path d="m432.003906 32.066406c-2.050781 0-4.097656-.785156-5.65625-2.34375-3.128906-3.128906-3.128906-8.183594 0-11.3125l16-16c3.125-3.128906 8.183594-3.128906 11.308594 0 3.128906 3.128906 3.128906 8.183594 0 11.3125l-16 16c-1.558594 1.558594-3.605469 2.34375-5.652344 2.34375zm0 0"/><path d="m432.003906 32.066406c-2.050781 0-4.097656-.785156-5.65625-2.34375l-16-16c-3.128906-3.128906-3.128906-8.183594 0-11.3125 3.125-3.128906 8.183594-3.128906 11.308594 0l16 16c3.128906 3.128906 3.128906 8.183594 0 11.3125-1.558594 1.558594-3.605469 2.34375-5.652344 2.34375zm0 0"/><path d="m400.003906 32.066406c-2.050781 0-4.097656-.785156-5.65625-2.34375l-16-16c-3.128906-3.128906-3.128906-8.183594 0-11.3125 3.125-3.128906 8.183594-3.128906 11.308594 0l16 16c3.128906 3.128906 3.128906 8.183594 0 11.3125-1.558594 1.558594-3.605469 2.34375-5.652344 2.34375zm0 0"/><path d="m368.003906 32.066406c-2.050781 0-4.097656-.785156-5.65625-2.34375-3.128906-3.128906-3.128906-8.183594 0-11.3125l16-16c3.125-3.128906 8.183594-3.128906 11.308594 0 3.128906 3.128906 3.128906 8.183594 0 11.3125l-16 16c-1.558594 1.558594-3.605469 2.34375-5.652344 2.34375zm0 0"/><path d="m400.128906 32.066406c-2.046875 0-4.09375-.785156-5.65625-2.34375-3.125-3.128906-3.125-8.183594 0-11.3125l16-16c3.128906-3.128906 8.183594-3.128906 11.3125 0s3.128906 8.183594 0 11.3125l-16 16c-1.558594 1.558594-3.605468 2.34375-5.65625 2.34375zm0 0"/><path d="m368.003906 32.066406c-2.050781 0-4.097656-.785156-5.65625-2.34375l-16-16c-3.128906-3.128906-3.128906-8.183594 0-11.3125 3.125-3.128906 8.183594-3.128906 11.308594 0l16 16c3.128906 3.128906 3.128906 8.183594 0 11.3125-1.558594 1.558594-3.605469 2.34375-5.652344 2.34375zm0 0"/><path d="m336.003906 32.066406c-2.050781 0-4.097656-.785156-5.65625-2.34375-3.128906-3.128906-3.128906-8.183594 0-11.3125l16-16c3.125-3.128906 8.183594-3.128906 11.308594 0 3.128906 3.128906 3.128906 8.183594 0 11.3125l-16 16c-1.558594 1.558594-3.605469 2.34375-5.652344 2.34375zm0 0"/><path d="m336.003906 32.066406c-2.050781 0-4.097656-.785156-5.65625-2.34375l-16-16c-3.128906-3.128906-3.128906-8.183594 0-11.3125 3.125-3.128906 8.183594-3.128906 11.308594 0l16 16c3.128906 3.128906 3.128906 8.183594 0 11.3125-1.558594 1.558594-3.605469 2.34375-5.652344 2.34375zm0 0"/><path d="m304.003906 32.066406c-2.050781 0-4.097656-.785156-5.65625-2.34375-3.128906-3.128906-3.128906-8.183594 0-11.3125l16-16c3.125-3.128906 8.183594-3.128906 11.308594 0 3.128906 3.128906 3.128906 8.183594 0 11.3125l-16 16c-1.558594 1.558594-3.605469 2.34375-5.652344 2.34375zm0 0"/><path d="m304.003906 32.066406c-2.050781 0-4.097656-.785156-5.65625-2.34375l-16-16c-3.128906-3.128906-3.128906-8.183594 0-11.3125 3.125-3.128906 8.183594-3.128906 11.308594 0l16 16c3.128906 3.128906 3.128906 8.183594 0 11.3125-1.558594 1.558594-3.605469 2.34375-5.652344 2.34375zm0 0"/><path d="m272.003906 32.066406c-2.050781 0-4.097656-.785156-5.65625-2.34375-3.128906-3.128906-3.128906-8.183594 0-11.3125l16-16c3.125-3.128906 8.183594-3.128906 11.308594 0 3.128906 3.128906 3.128906 8.183594 0 11.3125l-16 16c-1.558594 1.558594-3.605469 2.34375-5.652344 2.34375zm0 0"/><path d="m272.003906 32.066406c-2.050781 0-4.097656-.785156-5.65625-2.34375l-16-16c-3.128906-3.128906-3.128906-8.183594 0-11.3125 3.125-3.128906 8.183594-3.128906 11.308594 0l16 16c3.128906 3.128906 3.128906 8.183594 0 11.3125-1.558594 1.558594-3.605469 2.34375-5.652344 2.34375zm0 0"/><path d="m240.003906 32.066406c-2.050781 0-4.097656-.785156-5.65625-2.34375-3.128906-3.128906-3.128906-8.183594 0-11.3125l16-16c3.125-3.128906 8.183594-3.128906 11.308594 0 3.128906 3.128906 3.128906 8.183594 0 11.3125l-16 16c-1.558594 1.558594-3.605469 2.34375-5.652344 2.34375zm0 0"/><path d="m240.003906 32.066406c-2.050781 0-4.097656-.785156-5.65625-2.34375l-16-16c-3.128906-3.128906-3.128906-8.183594 0-11.3125 3.125-3.128906 8.183594-3.128906 11.308594 0l16 16c3.128906 3.128906 3.128906 8.183594 0 11.3125-1.558594 1.558594-3.605469 2.34375-5.652344 2.34375zm0 0"/><path d="m208.003906 32.066406c-2.050781 0-4.097656-.785156-5.65625-2.34375-3.128906-3.128906-3.128906-8.183594 0-11.3125l16-16c3.125-3.128906 8.183594-3.128906 11.308594 0 3.128906 3.128906 3.128906 8.183594 0 11.3125l-16 16c-1.558594 1.558594-3.605469 2.34375-5.652344 2.34375zm0 0"/><path d="m208.003906 32.066406c-2.050781 0-4.097656-.785156-5.65625-2.34375l-16-16c-3.128906-3.128906-3.128906-8.183594 0-11.3125 3.125-3.128906 8.183594-3.128906 11.308594 0l16 16c3.128906 3.128906 3.128906 8.183594 0 11.3125-1.558594 1.558594-3.605469 2.34375-5.652344 2.34375zm0 0"/><path d="m176.003906 32.066406c-2.050781 0-4.097656-.785156-5.65625-2.34375-3.128906-3.128906-3.128906-8.183594 0-11.3125l16-16c3.125-3.128906 8.183594-3.128906 11.308594 0 3.128906 3.128906 3.128906 8.183594 0 11.3125l-16 16c-1.558594 1.558594-3.605469 2.34375-5.652344 2.34375zm0 0"/><path d="m176.003906 32.066406c-2.050781 0-4.097656-.785156-5.65625-2.34375l-16-16c-3.128906-3.128906-3.128906-8.183594 0-11.3125 3.125-3.128906 8.183594-3.128906 11.308594 0l16 16c3.128906 3.128906 3.128906 8.183594 0 11.3125-1.558594 1.558594-3.605469 2.34375-5.652344 2.34375zm0 0"/><path d="m144.003906 32.066406c-2.050781 0-4.097656-.785156-5.65625-2.34375-3.128906-3.128906-3.128906-8.183594 0-11.3125l16-16c3.125-3.128906 8.183594-3.128906 11.308594 0 3.128906 3.128906 3.128906 8.183594 0 11.3125l-16 16c-1.558594 1.558594-3.605469 2.34375-5.652344 2.34375zm0 0"/><path d="m144.003906 32.066406c-2.050781 0-4.097656-.785156-5.65625-2.34375l-16-16c-3.128906-3.128906-3.128906-8.183594 0-11.3125 3.125-3.128906 8.183594-3.128906 11.308594 0l16 16c3.128906 3.128906 3.128906 8.183594 0 11.3125-1.558594 1.558594-3.605469 2.34375-5.652344 2.34375zm0 0"/><path d="m112.003906 32.066406c-2.050781 0-4.097656-.785156-5.65625-2.34375-3.128906-3.128906-3.128906-8.183594 0-11.3125l16-16c3.125-3.128906 8.183594-3.128906 11.308594 0 3.128906 3.128906 3.128906 8.183594 0 11.3125l-16 16c-1.558594 1.558594-3.605469 2.34375-5.652344 2.34375zm0 0"/><path d="m112.003906 32.066406c-2.050781 0-4.097656-.785156-5.65625-2.34375l-16-16c-3.128906-3.128906-3.128906-8.183594 0-11.3125 3.125-3.128906 8.183594-3.128906 11.308594 0l16 16c3.128906 3.128906 3.128906 8.183594 0 11.3125-1.558594 1.558594-3.605469 2.34375-5.652344 2.34375zm0 0"/><path d="m80.003906 32.066406c-2.050781 0-4.097656-.785156-5.65625-2.34375-3.128906-3.128906-3.128906-8.183594 0-11.3125l16-16c3.125-3.128906 8.183594-3.128906 11.308594 0 3.128906 3.128906 3.128906 8.183594 0 11.3125l-16 16c-1.558594 1.558594-3.605469 2.34375-5.652344 2.34375zm0 0"/><path d="m80.003906 32.066406c-2.050781 0-4.097656-.785156-5.65625-2.34375l-16-16c-3.128906-3.128906-3.128906-8.183594 0-11.3125 3.125-3.128906 8.183594-3.128906 11.308594 0l16 16c3.128906 3.128906 3.128906 8.183594 0 11.3125-1.558594 1.558594-3.605469 2.34375-5.652344 2.34375zm0 0"/><path d="m48.003906 32.066406c-2.050781 0-4.097656-.785156-5.65625-2.34375-3.128906-3.128906-3.128906-8.183594 0-11.3125l16-16c3.125-3.128906 8.183594-3.128906 11.308594 0 3.128906 3.128906 3.128906 8.183594 0 11.3125l-16 16c-1.558594 1.558594-3.605469 2.34375-5.652344 2.34375zm0 0"/><path d="m48.003906 32.066406c-2.050781 0-4.097656-.785156-5.65625-2.34375l-16-16c-3.128906-3.128906-3.128906-8.183594 0-11.3125 3.125-3.128906 8.183594-3.128906 11.308594 0l16 16c3.128906 3.128906 3.128906 8.183594 0 11.3125-1.558594 1.558594-3.605469 2.34375-5.652344 2.34375zm0 0"/><path d="m16.003906 32.066406c-2.050781 0-4.097656-.785156-5.65625-2.34375-3.128906-3.128906-3.128906-8.183594 0-11.3125l16-16c3.125-3.128906 8.183594-3.128906 11.308594 0 3.128906 3.128906 3.128906 8.183594 0 11.3125l-16 16c-1.558594 1.558594-3.605469 2.34375-5.652344 2.34375zm0 0"/><path d="m16.003906 32.066406c-2.050781 0-4.097656-.785156-5.65625-2.34375l-8-8c-3.128906-3.128906-3.128906-8.183594 0-11.3125 3.125-3.128906 8.183594-3.128906 11.308594 0l8 8c3.128906 3.128906 3.128906 8.183594 0 11.3125-1.558594 1.558594-3.605469 2.34375-5.652344 2.34375zm0 0"/><path d="m432.128906 311.402344c-4.421875 0-8-3.574219-8-8v-95.183594c0-4.421875 3.578125-8 8-8 4.425782 0 8 3.578125 8 8v95.175781c0 4.433594-3.574218 8.007813-8 8.007813zm0 0"/><path d="m432.128906 216.21875c-2.046875 0-4.09375-.785156-5.65625-2.34375l-50.964844-50.960938c-3.128906-3.128906-3.128906-8.183593 0-11.3125 3.125-3.125 8.183594-3.125 11.308594 0l50.96875 50.960938c3.128906 3.128906 3.128906 8.183594 0 11.3125-1.558594 1.566406-3.605468 2.34375-5.65625 2.34375zm0 0"/><path d="m222.851562 391.5c-2.050781 0-4.097656-.785156-5.65625-2.34375-3.128906-3.128906-3.128906-8.183594 0-11.3125l192.269532-192.28125c3.128906-3.128906 8.183594-3.128906 11.3125 0s3.128906 8.183594 0 11.3125l-192.269532 192.28125c-1.570312 1.558594-3.609374 2.34375-5.65625 2.34375zm0 0"/><path d="m307.699219 295.324219c-2.050781 0-4.097657-.785157-5.65625-2.34375l-175.242188-175.242188c-3.125-3.128906-3.125-8.183593 0-11.3125 3.128907-3.125 8.183594-3.125 11.3125 0l175.242188 175.242188c3.125 3.128906 3.125 8.183593 0 11.3125-1.5625 1.558593-3.609375 2.34375-5.65625 2.34375zm0 0"/><path d="m92.859375 227.578125c-2.050781 0-4.097656-.78125-5.65625-2.34375-3.128906-3.128906-3.128906-8.183594 0-11.3125l147.109375-147.117187c3.128906-3.128907 8.183594-3.128907 11.3125 0 3.128906 3.125 3.128906 8.183593 0 11.308593l-147.109375 147.121094c-1.570313 1.570313-3.617187 2.34375-5.65625 2.34375zm0 0"/><path d="m211.523438 300.945312c-2.050782 0-4.097657-.78125-5.65625-2.34375-3.128907-3.125-3.128907-8.183593 0-11.3125l101.816406-101.8125c3.125-3.128906 8.183594-3.128906 11.308594 0 3.128906 3.125 3.128906 8.183594 0 11.308594l-101.8125 101.816406c-1.570313 1.570313-3.609376 2.34375-5.65625 2.34375zm0 0"/><path d="m305.585938 370.265625c-4.425782 0-8.039063-3.574219-8.039063-8 0-4.421875 3.535156-8 7.949219-8h.089844c4.417968 0 8 3.578125 8 8 0 4.425781-3.582032 8-8 8zm0 0"/><path d="m350.851562 325.011719c-4.425781 0-8.042968-3.578125-8.042968-8 0-4.425781 3.539062-8 7.953125-8h.089843c4.414063 0 8 3.574219 8 8 0 4.421875-3.59375 8-8 8zm0 0"/><path d="m396.113281 279.746094c-4.421875 0-8.039062-3.574219-8.039062-8 0-4.421875 3.535156-8 7.953125-8h.085937c4.417969 0 8 3.578125 8 8 0 4.425781-3.582031 8-8 8zm0 0"/><path d="m504.128906 391.988281h-496c-4.421875 0-8-3.578125-8-8 0-4.425781 3.578125-8 8-8h496c4.425782 0 8 3.574219 8 8 0 4.421875-3.574218 8-8 8zm0 0"/><path d="m351.851562 391.683594c-2.050781 0-4.097656-.785156-5.65625-2.34375-3.128906-3.128906-3.128906-8.183594 0-11.3125l80.277344-80.28125c3.128906-3.128906 8.183594-3.128906 11.3125 0s3.128906 8.183594 0 11.3125l-80.277344 80.28125c-1.570312 1.558594-3.609374 2.34375-5.65625 2.34375zm0 0"/><path d="m112.179688 391.988281c-4.425782 0-8-3.578125-8-8v-48c0-4.425781 3.574218-8 8-8 4.421874 0 8 3.574219 8 8v48c0 4.421875-3.585938 8-8 8zm0 0"/><path d="m112.179688 343.988281c-4.425782 0-8-3.578125-8-8 0-13.234375 10.765624-24 24-24 4.421874 0 8 3.574219 8 8 0 4.421875-3.578126 8-8 8-4.417969 0-8 3.582031-8 8 0 4.421875-3.585938 8-8 8zm0 0"/><path d="m192.179688 391.988281c-4.425782 0-8-3.578125-8-8v-48c0-4.425781 3.574218-8 8-8 4.421874 0 8 3.574219 8 8v48c0 4.421875-3.585938 8-8 8zm0 0"/><path d="m192.179688 343.988281c-4.425782 0-8-3.578125-8-8 0-4.417969-3.585938-8-8-8-4.425782 0-8-3.578125-8-8 0-4.425781 3.574218-8 8-8 13.230468 0 24 10.765625 24 24 0 4.421875-3.585938 8-8 8zm0 0"/><path d="m176.179688 327.988281h-48c-4.425782 0-8-3.578125-8-8 0-4.425781 3.574218-8 8-8h48c4.421874 0 8 3.574219 8 8 0 4.421875-3.585938 8-8 8zm0 0"/><path d="m192.179688 359.988281h-80c-4.425782 0-8-3.578125-8-8 0-4.425781 3.574218-8 8-8h80c4.421874 0 8 3.574219 8 8 0 4.421875-3.585938 8-8 8zm0 0"/><path d="m152.171875 367.988281c-4.425781 0-8-3.578125-8-8v-16c0-4.425781 3.574219-8 8-8 4.421875 0 8 3.574219 8 8v16c0 4.421875-3.585937 8-8 8zm0 0"/><path d="m440.128906 351.980469c-4.421875 0-8-3.578125-8-8 0-13.234375 10.769532-24 24-24 4.425782 0 8 3.574219 8 8 0 4.421875-3.574218 8-8 8-4.414062 0-8 3.582031-8 8 0 4.421875-3.574218 8-8 8zm0 0"/><path d="m488.128906 351.980469c-4.421875 0-8-3.578125-8-8 0-4.417969-3.582031-8-8-8-4.421875 0-8-3.578125-8-8 0-4.425781 3.578125-8 8-8 13.234375 0 24 10.765625 24 24 0 4.421875-3.574218 8-8 8zm0 0"/><path d="m472.128906 335.980469h-16c-4.421875 0-8-3.578125-8-8 0-4.425781 3.578125-8 8-8h16c4.425782 0 8 3.574219 8 8 0 4.421875-3.574218 8-8 8zm0 0"/><path d="m440.128906 391.988281c-4.421875 0-8-3.578125-8-8v-40.007812c0-4.425781 3.578125-8 8-8 4.425782 0 8 3.574219 8 8v40.007812c0 4.421875-3.574218 8-8 8zm0 0"/><path d="m488.128906 391.988281c-4.421875 0-8-3.578125-8-8v-40.007812c0-4.425781 3.578125-8 8-8 4.425782 0 8 3.574219 8 8v40.007812c0 4.421875-3.574218 8-8 8zm0 0"/><path d="m464.128906 391.988281c-4.421875 0-8-3.578125-8-8v-55.378906c0-4.421875 3.578125-8 8-8 4.425782 0 8 3.578125 8 8v55.378906c0 4.421875-3.574218 8-8 8zm0 0"/><path d="m488.128906 367.988281h-48c-4.421875 0-8-3.578125-8-8 0-4.425781 3.578125-8 8-8h48c4.425782 0 8 3.574219 8 8 0 4.421875-3.574218 8-8 8zm0 0"/><path d="m24.121094 391.988281c-1.726563 0-3.472656-.554687-4.925782-1.707031-3.480468-2.726562-4.089843-7.757812-1.359374-11.230469.550781-.734375 14.359374-19.519531-.730469-47.222656-20.289063-37.257813-.144531-63.664063.730469-64.777344 2.726562-3.488281 7.765624-4.085937 11.230468-1.359375 3.464844 2.71875 4.078125 7.710938 1.390625 11.183594-.664062.886719-14.351562 19.65625.695313 47.289062 20.289062 37.238282.144531 63.648438-.726563 64.757813-1.574219 2.015625-3.929687 3.066406-6.304687 3.066406zm0 0"/><path d="m56.121094 391.988281c-1.726563 0-3.472656-.554687-4.925782-1.707031-3.480468-2.726562-4.089843-7.757812-1.359374-11.230469.550781-.734375 14.359374-19.519531-.730469-47.222656-2.121094-3.882813-.679688-8.746094 3.191406-10.847656 3.90625-2.121094 8.738281-.679688 10.847656 3.191406 20.289063 37.238281.144531 63.648437-.726562 64.757813-1.566407 2.007812-3.921875 3.058593-6.296875 3.058593zm0 0"/></g></svg>