<svg height="512" viewBox="0 0 60 55" width="512" xmlns="http://www.w3.org/2000/svg"><g id="Page-1" fill="none" fill-rule="evenodd"><g id="008---Shipwreck" fill-rule="nonzero"><g id="Icons_copy_2" transform="translate(1 1)"><path id="Shape" d="m56.24 24.52-10.09 10.09c-.8832527-.0553758-1.718791-.4200387-2.36-1.03l-.58-.54c-1.4623096-1.3902249-3.7576904-1.3902249-5.22 0l-.58.54c-1.4623096 1.3902249-3.7576904 1.3902249-5.22 0l-.58-.54c-1.4623096-1.3902249-3.7576904-1.3902249-5.22 0l-.58.54c-1.4623096 1.3902249-3.7576904 1.3902249-5.22 0l-.58-.54c-.6449918-.6102998-1.4837517-.9748242-2.37-1.03l2.03-2.03 8.48-8.48 15.27-15.27 4.87-4.87c.4804852-.48240031 1.1733792-.68722382 1.8389219-.54359605.6655428.14362777 1.2122997.61597472 1.4510781 1.25359605l6.04 16.1c.8252318 2.2041276.285606 4.6871883-1.38 6.35z" fill="#a4c2f7"/><path id="Shape" d="m57.62 18.17-6.04-16.1c-.2387784-.63762133-.7855353-1.10996828-1.4510781-1.25359605-.6655427-.14362777-1.3584367.06119574-1.8389219.54359605l-.095.095c.1651194.17953544.2956439.38803549.385.615l6.04 16.1c.8252318 2.2041276.285606 4.6871883-1.38 6.35l-9.232 9.232c.6062519.5037255 1.355645.8039026 2.142.858l10.09-10.09c1.665606-1.6628117 2.2052318-4.1458724 1.38-6.35z" fill="#7facfa"/><path id="Shape" d="m19.67 29.98-2.03 2.03c-1.0517242-.066709-2.0839213.3063307-2.85 1.03l-.58.54c-1.4623096 1.3902249-3.7576904 1.3902249-5.22 0l-.58-.54c-.58101098-.5522467-1.32431513-.9028619-2.12-1l7.72-7.72z" fill="#e8edfc"/><path id="Shape" d="m43.42 6.23-15.27 15.27-5.66-5.66 3.96-3.95 6.21-6.21c.9739779-.97881756 2.3852572-1.38366176 3.73-1.07z" fill="#e8edfc"/><path id="Shape" d="m28.15 21.5-8.48 8.48-5.66-5.66-10.61-10.6c-.37555409-.3751365-.58657331-.8841815-.58657331-1.415s.21101922-1.0398635.58657331-1.415l5.66-5.66c.37513651-.37555409.8841815-.58657331 1.415-.58657331s1.0398635.21101922 1.415.58657331l10.6 10.61z" fill="#a4c2f7"/><path id="Shape" d="m22.49 15.84-10.6-10.61c-.3751365-.37555409-.8841815-.58657331-1.415-.58657331s-1.03986349.21101922-1.415.58657331l-.085.085 10.515 10.525 5.66 5.66-6.98 6.98 1.5 1.5 8.48-8.48z" fill="#7facfa"/><path id="Rectangle-path" d="m4.475 10.305h12v4h-12z" fill="#e8edfc" transform="matrix(.707 -.707 .707 .707 -5.633 11.011)"/><g fill="#c6d8fb"><path id="Shape" d="m31.11 32.64c.1035704-.0749725.2005857-.1586064.29-.25 1.1685801-1.1726447 1.1663838-3.0702454-.0049076-4.2401819s-3.0688934-1.1699365-4.2401848 0-1.1734877 3.0675372-.0049076 4.2401819l.06.06"/><circle id="Oval" cx="36.347" cy="23.203" r="3"/><circle id="Oval" cx="43.418" cy="16.132" r="3"/><path id="Shape" d="m58 36v9l-3.19-2.96c-1.4623096-1.3902249-3.7576904-1.3902249-5.22 0l-.58.54c-1.4623096 1.3902249-3.7576904 1.3902249-5.22 0l-.58-.54c-1.4623096-1.3902249-3.7576904-1.3902249-5.22 0l-.58.54c-1.4623096 1.3902249-3.7576904 1.3902249-5.22 0l-.58-.54c-1.4623096-1.3902249-3.7576904-1.3902249-5.22 0l-.58.54c-1.4623096 1.3902249-3.7576904 1.3902249-5.22 0l-.58-.54c-1.4623096-1.3902249-3.7576904-1.3902249-5.22 0l-.58.54c-1.4623096 1.3902249-3.7576904 1.3902249-5.22 0l-.58-.54c-1.46230958-1.3902249-3.75769042-1.3902249-5.22 0l-3.19 2.96v-9l3.19-2.96c1.46826852-1.3752276 3.75173148-1.3752276 5.22 0l.58.54c1.4623096 1.3902249 3.7576904 1.3902249 5.22 0l.58-.54c1.4647194-1.3841796 3.7552806-1.3841796 5.22 0l.58.54c1.4623096 1.3902249 3.7576904 1.3902249 5.22 0l.58-.54c1.4623096-1.3902249 3.7576904-1.3902249 5.22 0l.58.54c1.4623096 1.3902249 3.7576904 1.3902249 5.22 0l.58-.54c1.4623096-1.3902249 3.7576904-1.3902249 5.22 0l.58.54c1.4647194 1.3841796 3.7552806 1.3841796 5.22 0l.58-.54c1.4623096-1.3902249 3.7576904-1.3902249 5.22 0z"/></g><path id="Shape" d="m55 33v9.216l3 2.784v-9z" fill="#a4c3fd"/><path id="Shape" d="m58 45v6c-.0032948 1.1032019-.8967981 1.9967052-2 2h-54c-1.10320187-.0032948-1.9967052-.8967981-2-2v-6l3.19-2.96c1.46230958-1.3902249 3.75769042-1.3902249 5.22 0l.58.54c1.4623096 1.3902249 3.7576904 1.3902249 5.22 0l.58-.54c1.4623096-1.3902249 3.7576904-1.3902249 5.22 0l.58.54c1.4623096 1.3902249 3.7576904 1.3902249 5.22 0l.58-.54c1.4623096-1.3902249 3.7576904-1.3902249 5.22 0l.58.54c1.4623096 1.3902249 3.7576904 1.3902249 5.22 0l.58-.54c1.4623096-1.3902249 3.7576904-1.3902249 5.22 0l.58.54c1.4623096 1.3902249 3.7576904 1.3902249 5.22 0l.58-.54c1.4623096-1.3902249 3.7576904-1.3902249 5.22 0z" fill="#c6d8fb"/><path id="Shape" d="m55 43v8c-.0032948 1.1032019-.8967981 1.9967052-2 2h3c1.1032019-.0032948 1.9967052-.8967981 2-2v-6z" fill="#a4c3fd"/></g><g id="Icons_copy" fill="#fff" transform="translate(1 5)"><path id="Shape" d="m2 49h3c-1.10320187-.0032948-1.9967052-.8967981-2-2v-15l3.19-2.96c.82820739-.7862106 1.96848529-1.1540421 3.1-1l6.305-6.3c.375248-.375096.5860729-.8839266.5860729-1.4145s-.2108249-1.039404-.5860729-1.4145l-9.195-9.19c-.77891042-.78293686-.77891042-2.04806314 0-2.831l5.575-5.575-.084-.085c-.7831625-.77836344-2.04783748-.77836344-2.831 0l-.085.085-5.575 5.576c-.37524801.37509602-.58607293.88392663-.58607293 1.4145s.21082492 1.03940398.58607293 1.4145l10.61 10.6-7.72 7.72c-1.13151471-.1540421-2.27179261.2137894-3.1 1l-3.19 2.96v15c.0032948 1.1032019.89679813 1.9967052 2 2z"/></g><g id="Icons"><path id="Rectangle-path" d="m3 53h8v2h-8z" fill="#fff"/><g fill="#428dff"><path id="Shape" d="m37.347 28.2c1.9083985-.000547 3.5506232-1.3491665 3.9222707-3.2210274.3716474-1.8718609-.6308029-3.7455658-2.3942409-4.4751353-1.7634379-.7295694-3.7966669-.1117856-4.8561406 1.4755079-1.0594736 1.5872934-.8500811 3.701964.5001108 5.0506548.7496123.7504912 1.7672676 1.1715154 2.828 1.17zm-1.414-5.413c.6747287-.6745249 1.7319546-.7785497 2.5252097-.2484657.7932551.5300839 1.1016468 1.5466676.7366011 2.4281347-.3650458.8814671-1.3018771 1.3823612-2.2376442 1.1963978-.9357672-.1859635-1.6098933-1.0070005-1.6101666-1.9610668-.0008804-.530587.2100592-1.0395779.586-1.414z"/><path id="Shape" d="m44.418 21.131c1.9083596-.0000696 3.5508996-1.3482246 3.9230561-3.2199447.3721565-1.87172-.6297282-3.7456694-2.3929099-4.4757563s-3.7965561-.1129581-4.8565283 1.4739557c-1.0599723 1.5869138-.8513052 3.7016046.4983821 5.0507453.748504.7522685 1.7667943 1.1739155 2.828 1.171zm-1.418-5.414c.7812068-.7809306 2.0475694-.7807068 2.8285.0005s.7807068 2.0475694-.0005 2.8285c-.7915755.7547943-2.0364245.7547943-2.828 0-.375248-.375096-.5860729-.8839266-.5860729-1.4145s.2108249-1.039404.5860729-1.4145z"/><path id="Shape" d="m56.491 33.311c-1.2050312-1.1269947-2.9054967-1.5540005-4.5-1.13l5.951-5.952c1.9422728-1.9410841 2.5723628-4.8374653 1.612-7.41l-6.04-16.1c-.3580802-.95619591-1.1779084-1.66461893-2.1759257-1.88024245-.9980173-.21562351-2.0371829.09116038-2.7580743.81424245l-4.478 4.478-6.492-1.5c-1.6803419-.39568533-3.4455296.11114323-4.66 1.338l-9.46 9.451-9.9-9.9c-.5626237-.56271905-1.3257625-.87885933-2.1215-.87885933s-1.55887626.31614028-2.1215.87885933l-5.647 5.664c-1.17114581 1.1714996-1.17114581 3.0705004 0 4.242l9.9 9.9-6.7 6.689c-1.25714225-.0267911-2.47477374.4398719-3.392 1.3l-3.188 2.952c-.20398628.1891822-.31994098.4547909-.32.733v15c0 1.6568542 1.34314575 3 3 3 .55228475 0 1-.4477153 1-1s-.44771525-1-1-1-1-.4477153-1-1v-5.564l2.868-2.659c1.07937433-1.0367446 2.78462567-1.0367446 3.864 0l.577.535c1.8487185 1.7417165 4.7342815 1.7417165 6.583 0l.576-.535c1.0793743-1.0367446 2.7846257-1.0367446 3.864 0l.576.535c1.8487185 1.7417165 4.7342815 1.7417165 6.583 0l.578-.535c1.0777857-1.0397244 2.7852143-1.0397244 3.863 0l.577.534c1.8487185 1.7417165 4.7342815 1.7417165 6.583 0l.576-.535c1.0793743-1.0367446 2.7846257-1.0367446 3.864 0l.576.535c1.8487185 1.7417165 4.7342815 1.7417165 6.583 0l.577-.535c1.0793743-1.0367446 2.7846257-1.0367446 3.864 0l2.868 2.66v5.564c0 .5522847-.4477153 1-1 1h-46c-.5522847 0-1 .4477153-1 1s.4477153 1 1 1h46c1.6568542 0 3-1.3431458 3-3v-15c-.000059-.2782091-.1160137-.5438178-.32-.733zm-6.491-30.244c.2400557-.24219497.5869816-.34536684.9203737-.2737088.333392.07165804.6072867.30826676.7266263.6277088l6.04 16.1c.6858281 1.8378247.2359914 3.9068393-1.151 5.294l-9.736 9.734c-.497526-.1113659-.9565221-.3529427-1.33-.7l-.576-.534c-1.8487185-1.7417165-4.7342815-1.7417165-6.583 0l-.577.534c-1.0787504 1.0382937-2.7852496 1.0382937-3.864 0l-.316-.292c1.1488414-1.6205517.9343528-3.8386697-.5037094-5.2090717-1.4380621-1.3704021-3.6639355-1.4778284-5.2272846-.2522821-1.5633492 1.2255463-1.9904475 3.4126996-1.003006 5.1363538-.035.03-.075.051-.109.083l-.577.535c-1.0793743 1.0367446-2.7846257 1.0367446-3.864 0l-.577-.534c-.346874-.3143053-.737216-.5770032-1.159-.78l9.327-9.326zm-21.46 29.185c-.4446085-.7773292-.3161693-1.7557579.314-2.392.7318769-.7383097 1.9073552-.7928076 2.7044052-.1253825.7970501.667425.9498719 1.8342004.3515948 2.6843825-1.0652144-.4654773-2.2639841-.5248822-3.37-.167zm-7.873-2.684-10.606-10.606 7.071-7.071 10.606 10.609zm-13.435-13.435 7.068-7.071 1.414 1.414-7.067 7.072zm27.139-8.749c.7286466-.73473043 1.786908-1.03774015 2.794-.8l5.271 1.216-13.284 13.283-1.415-1.415 6.78-6.781c.3904653-.3912938.3897937-1.0250347-.0015-1.4155-.3912938-.3904653-1.0250347-.3897937-1.4155.0015l-6.78 6.781-1.416-1.416zm-29.26 5.216 5.657-5.657c.1875683-.18777704.4420908-.29328666.7075-.29328666s.5199317.10550962.7075.29328666l.707.707-7.072 7.069-.707-.707c-.38905089-.3902698-.38905089-1.0217302 0-1.412zm9.9 14.139 4.246 4.245-1.041 1.041c-1.1543252.0438251-2.2544839.5009233-3.1 1.288l-.576.534c-1.0793743 1.0367446-2.7846257 1.0367446-3.864 0l-.576-.534c-.29536993-.2672085-.62209458-.4975612-.973-.686zm38.189 14.266c-1.2229009.0023628-2.3992439.4691826-3.291 1.306l-.576.534c-1.0787504 1.0382937-2.7852496 1.0382937-3.864 0l-.576-.534c-1.8487185-1.7417165-4.7342815-1.7417165-6.583 0l-.577.534c-1.0787504 1.0382937-2.7852496 1.0382937-3.864 0l-.576-.533c-1.8487185-1.7417165-4.7342815-1.7417165-6.583 0l-.577.535c-1.0791667 1.0372604-2.7848333 1.0372604-3.864 0l-.577-.534c-1.8487185-1.7417165-4.7342815-1.7417165-6.583 0l-.576.534c-1.0791667 1.0372604-2.7848333 1.0372604-3.864 0l-.576-.534c-1.84871851-1.7417165-4.73428149-1.7417165-6.583 0l-1.51 1.396v-6.272l2.868-2.66c1.07937433-1.0367446 2.78462567-1.0367446 3.864 0l.577.535c1.8487185 1.7417165 4.7342815 1.7417165 6.583 0l.576-.535c1.0793743-1.0367446 2.7846257-1.0367446 3.864 0l.576.535c1.8487185 1.7417165 4.7342815 1.7417165 6.583 0l.578-.535c1.0777857-1.0397244 2.7852143-1.0397244 3.863 0l.577.534c1.8487185 1.7417165 4.7342815 1.7417165 6.583 0l.576-.535c1.0793743-1.0367446 2.7846257-1.0367446 3.864 0l.576.535c1.8566728 1.721557 4.7263272 1.721557 6.583 0l.577-.535c1.0793743-1.0367446 2.7846257-1.0367446 3.864 0l2.868 2.661v6.272l-1.509-1.4c-.8920099-.8361745-2.0683527-1.3022793-3.291-1.304z"/><circle id="Oval" cx="7" cy="54" r="1"/></g></g></g></g></svg>