<svg id="Layer_1" height="512" viewBox="0 0 512 512" width="512" xmlns="http://www.w3.org/2000/svg" xmlns:xlink="http://www.w3.org/1999/xlink" data-name="Layer 1"><linearGradient id="linear-gradient" gradientUnits="userSpaceOnUse" x1="445.37" x2="445.37" y1="459.84" y2="119.006"><stop offset=".322" stop-color="#a163f5"/><stop offset=".466" stop-color="#b074ee"/><stop offset=".752" stop-color="#d8a1dd"/><stop offset=".898" stop-color="#efbad3"/></linearGradient><linearGradient id="linear-gradient-2" x1="403.239" x2="403.239" xlink:href="#linear-gradient" y1="459.84" y2="119.006"/><linearGradient id="linear-gradient-3" x1="184.816" x2="184.816" xlink:href="#linear-gradient" y1="459.839" y2="119.005"/><linearGradient id="linear-gradient-4" x1="55.315" x2="55.315" xlink:href="#linear-gradient" y1="459.839" y2="119.005"/><linearGradient id="linear-gradient-5" x1="373.659" x2="373.659" xlink:href="#linear-gradient" y1="459.84" y2="119.005"/><linearGradient id="linear-gradient-6" x1="103.83" x2="103.83" xlink:href="#linear-gradient" y1="459.839" y2="119.005"/><linearGradient id="linear-gradient-7" x1="41.165" x2="41.165" xlink:href="#linear-gradient" y1="459.839" y2="119.005"/><linearGradient id="linear-gradient-8" x1="141.826" x2="141.826" xlink:href="#linear-gradient" y1="459.839" y2="119.005"/><linearGradient id="linear-gradient-9" x1="202.086" x2="202.086" xlink:href="#linear-gradient" y1="459.839" y2="119.005"/><linearGradient id="linear-gradient-10" x1="250.126" x2="250.126" xlink:href="#linear-gradient" y1="459.839" y2="119.005"/><linearGradient id="linear-gradient-11" x1="297.764" x2="297.764" xlink:href="#linear-gradient" y1="459.839" y2="119.005"/><linearGradient id="linear-gradient-12" x1="348.767" x2="348.767" xlink:href="#linear-gradient" y1="459.839" y2="119.005"/><linearGradient id="linear-gradient-13" x1="256" x2="256" xlink:href="#linear-gradient" y1="459.84" y2="119.005"/><path d="m445.37 104.791a16.886 16.886 0 1 0 -16.925-16.886 16.925 16.925 0 0 0 16.925 16.886zm0-21.772a4.886 4.886 0 1 1 -4.925 4.886 4.91 4.91 0 0 1 4.925-4.886z" fill="url(#linear-gradient)"/><path d="m387.861 213.264a15.378 15.378 0 1 0 15.377-15.344 15.378 15.378 0 0 0 -15.377 15.344zm15.377-3.344a3.344 3.344 0 1 1 -3.377 3.344 3.365 3.365 0 0 1 3.377-3.344z" fill="url(#linear-gradient-2)"/><path d="m184.816 81.027a19.846 19.846 0 1 0 -19.9-19.845 19.893 19.893 0 0 0 19.9 19.845zm0-27.691a7.846 7.846 0 1 1 -7.9 7.846 7.879 7.879 0 0 1 7.9-7.846z" fill="url(#linear-gradient-3)"/><path d="m55.315 342.311a17.219 17.219 0 1 0 17.259 17.219 17.258 17.258 0 0 0 -17.259-17.219zm0 22.437a5.219 5.219 0 1 1 5.259-5.218 5.244 5.244 0 0 1 -5.259 5.218z" fill="url(#linear-gradient-4)"/><path d="m373.659 134.764a23.341 23.341 0 1 0 -23.4-23.341 23.4 23.4 0 0 0 23.4 23.341zm0-34.682a11.341 11.341 0 1 1 -11.4 11.341 11.385 11.385 0 0 1 11.4-11.341z" fill="url(#linear-gradient-5)"/><path d="m145.138 434.941h-82.616a6 6 0 1 0 0 12h82.616a6 6 0 0 0 0-12z" fill="url(#linear-gradient-6)"/><path d="m42.763 434.941h-3.2a6 6 0 1 0 0 12h3.2a6 6 0 0 0 0-12z" fill="url(#linear-gradient-7)"/><path d="m141.825 157.912a24.92 24.92 0 1 0 24.972 24.92 24.974 24.974 0 0 0 -24.972-24.92zm0 37.84a12.92 12.92 0 1 1 12.972-12.92 12.96 12.96 0 0 1 -12.972 12.92z" fill="url(#linear-gradient-8)"/><path d="m202.086 200.467a21.743 21.743 0 1 0 21.785 21.742 21.788 21.788 0 0 0 -21.785-21.742zm0 31.485a9.743 9.743 0 1 1 9.785-9.743 9.774 9.774 0 0 1 -9.785 9.743z" fill="url(#linear-gradient-9)"/><path d="m250.126 254.629a19.55 19.55 0 1 0 19.587 19.55 19.59 19.59 0 0 0 -19.587-19.55zm0 27.1a7.55 7.55 0 1 1 7.587-7.55 7.577 7.577 0 0 1 -7.587 7.55z" fill="url(#linear-gradient-10)"/><path d="m297.764 301.66a19.551 19.551 0 1 0 19.587 19.551 19.592 19.592 0 0 0 -19.587-19.551zm0 27.1a7.551 7.551 0 1 1 7.587-7.55 7.577 7.577 0 0 1 -7.587 7.551z" fill="url(#linear-gradient-11)"/><path d="m348.767 338.181a19.55 19.55 0 1 0 19.587 19.549 19.59 19.59 0 0 0 -19.587-19.549zm0 27.1a7.55 7.55 0 1 1 7.587-7.551 7.577 7.577 0 0 1 -7.587 7.551z" fill="url(#linear-gradient-12)"/><path d="m472.194 403.293a97.434 97.434 0 0 1 3.932-15.754c5.627-16.623 1.793-32.428-11.086-45.7a72.7 72.7 0 0 0 -20.5-14.588 6 6 0 0 0 -7.128 9.216c.14.175 11.241 14.654 3.757 38.3l-35.042-37.093 3.943-21.807a9.5 9.5 0 0 0 -7.451-10.969 57.785 57.785 0 0 1 -6.558-1.8c5.115-15.254 6.341-25.281 3.618-29.812a7.713 7.713 0 0 0 -5.628-3.761c-14.84-2.048-34.619-8.438-52.827-15.281l12.214-46.355a11.629 11.629 0 0 0 -1.541-9.372c-11.345-17.142-29.623-19.952-40.563-19.921l6.52-24.746a16.512 16.512 0 0 0 -6.816-17.97c-19.8-13.153-36.523-14.279-47.062-12.906a16.407 16.407 0 0 0 -13.762 12.181l-7.414 28.133a40.628 40.628 0 0 0 -17.265 1.443 6 6 0 0 0 -3.762 4.114l-4.026 15.283c-54.34-47.823-107.878-60.568-131.423-63.943a17.708 17.708 0 0 0 -20.258 17.58c.162 35.283-4.556 110.932-23.046 174.525-1.822.087-3.621.207-5.368.4-16.844 1.874-24.012 8.244-24.775 8.964a6.006 6.006 0 0 0 -1.877 4.362v59.725.02l.253 78.923a6 6 0 0 0 6 5.98h477.747a6 6 0 0 0 6-6v-26.022a6.014 6.014 0 0 0 -.258-1.742 62.816 62.816 0 0 0 -28.548-33.607zm-74.362-87.187-2.917 16.131c-14.048-4.119-52.691-18.989-101.786-67.111 23.871 13.546 80.446 44.804 104.703 50.98zm-8.672-35.193c-.305 3.657-2 10.629-4.356 17.913-30.215-12.631-78.465-39.944-92.5-48l.919-3.485c17.254 7.812 64.436 28.285 95.937 33.572zm-92.837-45.349 6.069-23.032c7.564.308 23.661 2.441 33.628 14.364l-6.057 22.99c-14.694-5.843-27.246-11.416-33.64-14.322zm45.468-30.573-2.239 8.5c-11.3-9.528-25.314-12.168-34.035-12.819l2.625-9.962c7.358-.496 24.158.113 33.649 14.281zm-79.974-66.78a4.515 4.515 0 0 1 3.707-3.339c6.964-.907 21.283-.684 38.873 11a4.513 4.513 0 0 1 1.854 4.916l-2.773 10.524c-14.748-9.759-33.819-11.86-44.534-12.2zm-6.017 22.857a105.787 105.787 0 0 1 15.244 1.195c8.8 1.347 20.608 4.451 29.15 11.533l-12.364 46.904-15.5-4.062a6 6 0 0 0 -7.323 4.276l-2.832 10.746c-.165-.2-.332-.4-.5-.594l11.4-48.188a6 6 0 0 0 -1.756-5.778 53.931 53.931 0 0 0 -16.893-10.866zm28.977 71.237-5.035 19.112q-3.983-4.248-8.039-8.792l3.388-12.859zm-52.3-56.954c5.123-.856 16.325-1.2 28.1 8.3l-2.168 9.161c-9.608-5.845-20.866-8.167-28.137-9.088zm22.971 29.967-3.347 14.147q-10.764-12.873-21.747-23.61c7.089 1.039 17.568 3.525 25.087 9.463zm-177.449-57.4c5.048 2.532 7.4 8.3 7.4 13.748a14.986 14.986 0 0 1 -8.5 13.7c.601-10.2.95-19.466 1.093-27.447zm-3.349 56.324c33.075 5.087 93.138 31.1 139.861 87.314 21.759 26.179 42.567 46.511 61.49 62.283a158.792 158.792 0 0 1 -103.316-.141c9.043-22.392 7.451-51.1 7.362-52.578a6 6 0 0 0 -8.31-5.17c-.664.278-16.3 7.1-20.689 31.759a40.382 40.382 0 0 1 -9.726 19.734c.248-6.05.784-12.966 1.75-20.8 5.176-41.974-20.414-61.444-21.5-62.252a6 6 0 0 0 -8.939 7.5c.113.226 10.466 21.65-.437 55.157-21.296-8.501-40.277-13.362-56.748-14.568 10.042-35.603 15.952-74.559 19.195-108.237zm75.14 192.242q-4.084 2.8-8.2 5.837c-1.688 1.252-3.4 2.383-5.14 3.42-7.837-9.629-27.344-37.771-15.635-67.268 6.3-15.861 8.324-29.751 8.363-40.989a66.92 66.92 0 0 1 1.979 27.693c-4.912 39.82.632 58.032.871 58.787a6 6 0 0 0 11.454-3.577c-.028-.094-1.6-5.49-2.153-16.795 5.929-4.283 18.221-15.184 21.529-33.782a41.059 41.059 0 0 1 5.139-14.313c-.137 2.766-.359 5.813-.712 9.008-1.742 15.785-5.814 28.027-11.776 35.4-6.528 8.077-8.301 25.995-5.726 36.58zm-24.57 14.475c-.449.155-.9.3-1.352.441-3.858-6.482-13.217-12.7-28.529-18.948-4.444-1.812-6.972-5.79-8.379-9.232a44.371 44.371 0 0 1 27.48 10.819 108.845 108.845 0 0 0 10.773 16.921zm39.625-43.507c.779-.964 1.517-1.971 2.221-3.01a174.276 174.276 0 0 0 30.327 7.832 175.216 175.216 0 0 0 -36.634 17.126c-.469-7.037.641-17.69 4.079-21.947zm83.12 11.8c35.171 5.5 53.891 31.112 54.067 31.358a6 6 0 1 0 9.787-6.943c-.768-1.082-17.3-23.9-49.291-33.391a144.019 144.019 0 0 0 24.3-7.738 299.224 299.224 0 0 0 50.2 31.9 200.124 200.124 0 0 0 32.161 12.776c-.4.2-.794.394-1.193.6-40.98 21.111-82.119 8.736-121.9-3.233-21.579-6.492-42.339-12.734-62.644-13.83 22.725-10.785 44.322-14.658 64.506-11.497zm-224.965-50.063c6.623-3.656 30.8-12.613 85.122 9.166a66.578 66.578 0 0 0 -.744 37.328c-15.557-6.65-28.626-3.919-29.35-3.757a6 6 0 0 0 -4.674 6.467c.078.768 2.094 18.909 17.445 25.172 10.7 4.365 16.462 8 19.554 10.55-37.968 3.552-77.709-24.106-87.353-31.325zm364.315 99.778a6 6 0 0 0 7.8 3.333c.077-.032 7.931-2.792 16.233 7.966a49.719 49.719 0 0 0 16.962 14.262c-.858.475-1.378.8-1.5.875a5.981 5.981 0 0 0 -2.513 3.261h-401.064l-.2-61.092a197.839 197.839 0 0 0 35.757 19.288c29.538 12 56.17 12.741 77.923 2.346a5.94 5.94 0 0 0 2.156-1.079 73.247 73.247 0 0 0 9.868-6.168q5.382-3.993 10.692-7.507c25.746-5.648 53.664 2.74 83.2 11.625 25.152 7.567 50.81 15.287 77.061 15.285a114.931 114.931 0 0 0 53.8-12.875c20.906-10.77 39.19-12.588 52.5-11.6a40.153 40.153 0 0 0 5.081 35.444 39.121 39.121 0 0 1 -10.219-9.4c-13.917-18.037-29.547-12.036-30.2-11.772a6 6 0 0 0 -3.337 7.808zm43.718-33.643a103.152 103.152 0 0 0 -41.982 3.932c-8.161-.868-78.813-11.292-165.319-115.369-49.094-59.067-112.936-86.354-148.027-91.6q.165-2.043.319-4.053a27.156 27.156 0 0 0 21.369-26.562c0-13.027-7.756-23.35-18.855-26.253a5.735 5.735 0 0 1 6.085-3.349c27.61 3.956 98.607 21.515 161.408 98.911 75.974 93.626 138.359 111.419 150.605 114.119l39.386 41.691c-.926 1.727-1.929 3.481-3.062 5.277-.687 1.088-1.319 2.173-1.927 3.256zm5.832 31.292c-2.239-8.556-.137-18.025 6.245-28.148 12.925-20.5 14.037-37.63 11.823-49.757q.753.715 1.494 1.478c9.677 9.976 12.48 21.249 8.332 33.5-9.352 27.629-5.314 49.781-1.6 61.459a81.36 81.36 0 0 0 -11.26 1.237c-3.684-2.466-12.263-9.185-15.034-19.769zm52.135 32.048h-37.329a68.21 68.21 0 0 1 26.976-.447 6 6 0 1 0 2.2-11.8c-1.609-.3-3.191-.533-4.754-.727a76.98 76.98 0 0 1 -5.046-28.939 52.226 52.226 0 0 1 17.953 22.907z" fill="url(#linear-gradient-13)"/></svg>